# xmcd CD database file
#
# Track frame offsets:
#	150
#	20645
#	36214
#	62083
#	80647
#	109016
#	123250
#
# Disc length: 2019 seconds
#
# Revision: 2
# Processed by: cddbd v1.5.1PL0 Copyright (c) Steve Scherf et al.
# Submitted via: CDex 1.50
#
DISCID=5707e107
DTITLE=Various Artist - Talkin all that Blues(du Mali au Mississipi) - Vibrations N°74
DYEAR=2005
DGENRE=Blues
TTITLE0=Ali Farka Toure and Toumani Diabate_Ai Ga Bani
TTITLE1=Otis Redding_Rock Me Babe
TTITLE2=Djelimady Tounkara_Fanta Bourama
TTITLE3=Albert King_Wanna Get Funky
TTITLE4=Ali Farka Toure_Manokoide
TTITLE5=John Lee Hooker_Whistlin' and Moanin' Blues
TTITLE6=Khalifa Ould Eide and Dimi Mint Abba_Waidalal Waidalal
EXTD=YEAR: 2005
EXTT0=
EXTT1=
EXTT2=
EXTT3=
EXTT4=
EXTT5=
EXTT6=
PLAYORDER=
